                                                                        S0000001
,,31HOpen CASCADE IGES processor 6.3,13HFilename.iges,                  G0000001
16HOpen CASCADE 6.3,31HOpen CASCADE IGES processor 6.3,32,308,15,308,15,G0000002
,1.,6,1HM,1,0.01,15H20111129.111101,1E-07,1.258933,5Hamola,,11,0,       G0000003
15H20111129.111101,;                                                    G0000004
     510       1       0       0       0       0       0       000010000D0000001
     510       0       0       1       1                               0D0000002
     128       2       0       0       0       0       0       000010000D0000003
     128       0       0      29       0                               0D0000004
     508      31       0       0       0       0       0       000010000D0000005
     508       0       0       2       1                               0D0000006
     504      33       0       0       0       0       0       000010001D0000007
     504       0       0       1       1                               0D0000008
     126      34       0       0       0       0       0       000010000D0000009
     126       0       0       7       0                               0D0000010
     502      41       0       0       0       0       0       000010000D0000011
     502       0       0       2       1                               0D0000012
     126      43       0       0       0       0       0       000010000D0000013
     126       0       0       4       0                               0D0000014
     126      47       0       0       0       0       0       000010000D0000015
     126       0       0      10       0                               0D0000016
     126      57       0       0       0       0       0       000010000D0000017
     126       0       0       3       0                               0D0000018
     110      60       0       0       0       0       0       000010000D0000019
     110       0       0       1       0                               0D0000020
     110      61       0       0       0       0       0       000010000D0000021
     110       0       0       1       0                               0D0000022
     110      62       0       0       0       0       0       000010000D0000023
     110       0       0       1       0                               0D0000024
     110      63       0       0       0       0       0       000010000D0000025
     110       0       0       1       0                               0D0000026
510,3,1,1,5;                                                     0000001P0000001
128,3,10,3,4,0,0,1,0,0,0.,0.,0.,0.,1.,1.,1.,1.,0.,0.,0.,0.,0.,   0000003P0000002
0.434398431,0.434398431,0.434398431,0.67839972,0.67839972,       0000003P0000003
0.67839972,1.,1.,1.,1.,1.,1.,1.,1.,1.,1.,1.,1.,1.,1.,1.,1.,1.,   0000003P0000004
1.,1.,1.,1.,1.,1.,1.,1.,1.,1.,1.,1.,1.,1.,1.,1.,1.,1.,1.,1.,1.,  0000003P0000005
1.,1.,1.,1.,1.,1.,1.,1.,1.,1.,1.,-1.25,0.,0.15625,-0.427535926,  0000003P0000006
0.166356581,0.15625,0.427535926,0.166356581,0.15625,1.25,        0000003P0000007
-3.885780586E-16,0.15625,-1.25,0.,0.1171875,-0.427535926,        0000003P0000008
0.166356581,0.1171875,0.427535926,0.166356581,0.1171875,1.25,    0000003P0000009
-3.885780586E-16,0.1171875,-1.25,0.,7.8125E-02,-0.427535926,     0000003P0000010
0.166356581,7.8125E-02,0.427535926,0.166356581,7.8125E-02,1.25,  0000003P0000011
-3.885780586E-16,7.8125E-02,-1.25,0.,3.90625E-02,-0.427535926,   0000003P0000012
0.166356581,3.90625E-02,0.427535926,0.166356581,3.90625E-02,     0000003P0000013
1.25,-3.885780586E-16,3.90625E-02,-1.25,0.,-2.194137841E-02,     0000003P0000014
-0.427537148,0.166340839,-2.194137841E-02,0.427537148,           0000003P0000015
0.166340839,-2.194137841E-02,1.25,-3.885524483E-16,              0000003P0000016
-2.194137841E-02,-1.25,0.,-4.186850308E-02,-0.426411306,         0000003P0000017
0.157707663,-4.186850308E-02,0.426411306,0.157707663,            0000003P0000018
-4.186850308E-02,1.25,-3.683109958E-16,-4.186850308E-02,-1.25,   0000003P0000019
0.,-6.051483061E-02,-0.424671145,0.14360916,-6.051483061E-02,    0000003P0000020
0.424671145,0.14360916,-6.051483061E-02,1.25,-3.352606389E-16,   0000003P0000021
-6.051483061E-02,-1.25,0.,-0.101335678,-0.420417595,0.100130616, 0000003P0000022
-0.101335678,0.420417595,0.100130616,-0.101335678,1.25,          0000003P0000023
-2.335884101E-16,-0.101335678,-1.25,0.,-0.121016618,             0000003P0000024
-0.418058171,6.969502649E-02,-0.121016618,0.418058171,           0000003P0000025
6.969502649E-02,-0.121016618,1.25,-1.624730779E-16,-0.121016618, 0000003P0000026
-1.25,0.,-0.139275692,-0.416669646,3.62728606E-02,-0.139275692,  0000003P0000027
0.416669646,3.62728606E-02,-0.139275692,1.25,-8.457292169E-17,   0000003P0000028
-0.139275692,-1.25,0.,-0.15625,-0.416666667,0.,-0.15625,         0000003P0000029
0.416666667,0.,-0.15625,1.25,0.,-0.15625,0.,1.,0.,1.;            0000003P0000030
508,4,0,7,1,0,1,0,19,0,7,2,1,1,0,21,0,7,3,1,1,0,23,0,7,4,0,1,0,  0000005P0000031
25;                                                              0000005P0000032
504,4,9,11,1,11,2,13,11,1,11,3,15,11,3,11,4,17,11,2,11,4;        0000007P0000033
126,10,4,0,0,1,0,0.,0.,0.,0.,0.,0.434398431,0.434398431,         0000009P0000034
0.434398431,0.67839972,0.67839972,0.67839972,1.,1.,1.,1.,1.,1.,  0000009P0000035
1.,1.,1.,1.,1.,1.,1.,1.,1.,1.,-1.25,0.,0.15625,-1.25,0.,         0000009P0000036
0.1171875,-1.25,0.,7.8125E-02,-1.25,0.,3.90625E-02,-1.25,0.,     0000009P0000037
-2.194137841E-02,-1.25,0.,-4.186850308E-02,-1.25,0.,             0000009P0000038
-6.051483061E-02,-1.25,0.,-0.101335678,-1.25,0.,-0.121016618,    0000009P0000039
-1.25,0.,-0.139275692,-1.25,0.,-0.15625,0.,1.,0.,0.,1.;          0000009P0000040
502,4,-1.25,0.,0.15625,-1.25,6.938893904E-18,-0.15625,1.25,      0000011P0000041
-3.885780586E-16,0.15625,1.25,6.938893904E-18,-0.15625;          0000011P0000042
126,3,3,1,0,1,0,0.,0.,0.,0.,1.,1.,1.,1.,1.,1.,1.,1.,-1.25,0.,    0000013P0000043
0.15625,-0.427535926,0.166356581,0.15625,0.427535926,            0000013P0000044
0.166356581,0.15625,1.25,-3.885780586E-16,0.15625,0.,1.,         0000013P0000045
-1.684564833E-15,7.459327676E-16,1.;                             0000013P0000046
126,10,4,0,0,1,0,0.,0.,0.,0.,0.,0.434398431,0.434398431,         0000015P0000047
0.434398431,0.67839972,0.67839972,0.67839972,1.,1.,1.,1.,1.,1.,  0000015P0000048
1.,1.,1.,1.,1.,1.,1.,1.,1.,1.,1.25,-3.885780586E-16,0.15625,     0000015P0000049
1.25,-3.885780586E-16,0.1171875,1.25,-3.885780586E-16,           0000015P0000050
7.8125E-02,1.25,-3.885780586E-16,3.90625E-02,1.25,               0000015P0000051
-3.885524483E-16,-2.194137841E-02,1.25,-3.683109958E-16,         0000015P0000052
-4.186850308E-02,1.25,-3.352606389E-16,-6.051483061E-02,1.25,    0000015P0000053
-2.335884101E-16,-0.101335678,1.25,-1.624730779E-16,             0000015P0000054
-0.121016618,1.25,-8.457292169E-17,-0.139275692,1.25,0.,         0000015P0000055
-0.15625,0.,1.,0.,0.,1.;                                         0000015P0000056
126,3,3,0,0,1,0,0.,0.,0.,0.,1.,1.,1.,1.,1.,1.,1.,1.,-1.25,0.,    0000017P0000057
-0.15625,-0.416666667,0.,-0.15625,0.416666667,0.,-0.15625,1.25,  0000017P0000058
0.,-0.15625,0.,1.,0.,0.,1.;                                      0000017P0000059
110,0.,1.,0.,0.,0.,0.;                                           0000019P0000060
110,0.,0.,0.,1.,0.,0.;                                           0000021P0000061
110,1.,0.,0.,1.,1.,0.;                                           0000023P0000062
110,1.,1.,0.,0.,1.,0.;                                           0000025P0000063
S      1G      4D     26P     63                                        T0000001
