<?xml version="1.0" encoding="utf-8" standalone="no"?>
<!DOCTYPE svg PUBLIC "-//W3C//DTD SVG 1.1//EN"
  "http://www.w3.org/Graphics/SVG/1.1/DTD/svg11.dtd">
<!-- Created with matplotlib (https://matplotlib.org/) -->
<svg height="140.860469pt" version="1.1" viewBox="0 0 375.02 140.860469" width="375.02pt" xmlns="http://www.w3.org/2000/svg" xmlns:xlink="http://www.w3.org/1999/xlink">
 <metadata>
  <rdf:RDF xmlns:cc="http://creativecommons.org/ns#" xmlns:dc="http://purl.org/dc/elements/1.1/" xmlns:rdf="http://www.w3.org/1999/02/22-rdf-syntax-ns#">
   <cc:Work>
    <dc:type rdf:resource="http://purl.org/dc/dcmitype/StillImage"/>
    <dc:date>2021-05-19T11:42:51.997656</dc:date>
    <dc:format>image/svg+xml</dc:format>
    <dc:creator>
     <cc:Agent>
      <dc:title>Matplotlib v3.3.2, https://matplotlib.org/</dc:title>
     </cc:Agent>
    </dc:creator>
   </cc:Work>
  </rdf:RDF>
 </metadata>
 <defs>
  <style type="text/css">*{stroke-linecap:butt;stroke-linejoin:round;}</style>
 </defs>
 <g id="figure_1">
  <g id="patch_1">
   <path d="M 0 140.860469 
L 375.02 140.860469 
L 375.02 0 
L 0 0 
z
" style="fill:#ffffff;"/>
  </g>
  <g id="axes_1">
   <g id="patch_2">
    <path d="M 10.7 130.160469 
L 115.735294 130.160469 
L 115.735294 25.125175 
L 10.7 25.125175 
z
" style="fill:#ffffff;"/>
   </g>
   <g id="line2d_1">
    <path clip-path="url(#p6c1199b75e)" d="M 101.433173 141.860469 
L 99.818309 137.039698 
L 97.728225 131.467643 
L 95.4292 125.978497 
L 92.924514 120.58009 
L 90.217739 115.280126 
L 87.312739 110.086166 
L 84.213658 105.00562 
L 80.924918 100.045738 
L 77.45121 95.213595 
L 73.797491 90.516087 
L 69.968974 85.959914 
L 65.971122 81.551579 
L 61.809637 77.29737 
L 57.490458 73.203357 
L 53.019748 69.275381 
L 48.403883 65.519047 
L 43.649452 61.939714 
L 38.763236 58.542489 
L 33.752207 55.332218 
L 28.623515 52.313483 
L 23.384477 49.490589 
L 18.042567 46.867565 
L 12.605409 44.448153 
L 7.080758 42.235805 
L 1.476498 40.233678 
L -1 39.426889 
L -1 39.426889 
" style="fill:none;stroke:#000000;stroke-linecap:square;stroke-width:1.5;"/>
   </g>
   <g id="matplotlib.axis_1"/>
   <g id="matplotlib.axis_2"/>
   <g id="PathCollection_1">
    <defs>
     <path d="M 0 2.12132 
C 0.562581 2.12132 1.102195 1.897805 1.5 1.5 
C 1.897805 1.102195 2.12132 0.562581 2.12132 0 
C 2.12132 -0.562581 1.897805 -1.102195 1.5 -1.5 
C 1.102195 -1.897805 0.562581 -2.12132 0 -2.12132 
C -0.562581 -2.12132 -1.102195 -1.897805 -1.5 -1.5 
C -1.897805 -1.102195 -2.12132 -0.562581 -2.12132 0 
C -2.12132 0.562581 -1.897805 1.102195 -1.5 1.5 
C -1.102195 1.897805 -0.562581 2.12132 0 2.12132 
z
" id="m93c5f5d0fb" style="stroke:#1f77b4;"/>
    </defs>
    <g clip-path="url(#p6c1199b75e)">
     <use style="fill:#1f77b4;stroke:#1f77b4;" x="27.108404" xlink:href="#m93c5f5d0fb" y="111.880337"/>
     <use style="fill:#1f77b4;stroke:#1f77b4;" x="71.937047" xlink:href="#m93c5f5d0fb" y="111.880337"/>
     <use style="fill:#1f77b4;stroke:#1f77b4;" x="17.662506" xlink:href="#m93c5f5d0fb" y="61.937945"/>
     <use style="fill:#1f77b4;stroke:#1f77b4;" x="36.684471" xlink:href="#m93c5f5d0fb" y="61.937945"/>
    </g>
   </g>
   <g id="patch_3">
    <path d="M 10.7 130.160469 
L 10.7 25.125175 
" style="fill:none;stroke:#000000;stroke-linecap:square;stroke-linejoin:miter;stroke-width:0.8;"/>
   </g>
   <g id="patch_4">
    <path d="M 115.735294 130.160469 
L 115.735294 25.125175 
" style="fill:none;stroke:#000000;stroke-linecap:square;stroke-linejoin:miter;stroke-width:0.8;"/>
   </g>
   <g id="patch_5">
    <path d="M 10.7 130.160469 
L 115.735294 130.160469 
" style="fill:none;stroke:#000000;stroke-linecap:square;stroke-linejoin:miter;stroke-width:0.8;"/>
   </g>
   <g id="patch_6">
    <path d="M 10.7 25.125175 
L 115.735294 25.125175 
" style="fill:none;stroke:#000000;stroke-linecap:square;stroke-linejoin:miter;stroke-width:0.8;"/>
   </g>
   <g id="text_1">
    <!-- $\psi &lt; 0$ -->
    <g transform="translate(42.470612 19.125175)scale(0.168 -0.168)">
     <defs>
      <path d="M 47 67.09375 
C 47 67.203125 47.40625 68.5 47.40625 68.609375 
C 47.40625 69.5 46.59375 69.5 46.296875 69.5 
C 45.40625 69.5 45.296875 69 44.90625 67.5 
L 28.40625 1.203125 
C 20.09375 2.203125 17 6.40625 17 12.40625 
C 17 14.59375 17 16.90625 21.703125 29.296875 
C 23 32.890625 23.5 34.1875 23.5 35.984375 
C 23.5 40.484375 20.296875 44.078125 15.59375 44.078125 
C 6.40625 44.078125 2.703125 29.59375 2.703125 28.796875 
C 2.703125 28.390625 3.09375 27.890625 3.796875 27.890625 
C 4.703125 27.890625 4.796875 28.296875 5.203125 29.6875 
C 7.59375 38.328125 11.59375 42 15.296875 42 
C 16.203125 42 17.90625 42 17.90625 38.796875 
C 17.90625 38.390625 17.90625 36.1875 16.203125 31.796875 
C 10.796875 17.59375 10.796875 15.390625 10.796875 13.09375 
C 10.796875 3.484375 18.796875 -0.21875 27.796875 -0.90625 
C 27 -3.953125 26.296875 -7.078125 25.5 -10.109375 
C 23.90625 -15.96875 23.203125 -18.71875 23.203125 -19.109375 
C 23.203125 -20 24 -20 24.296875 -20 
C 24.5 -20 24.90625 -20 25.09375 -19.59375 
C 25.5 -19.21875 29.59375 -2.75 30 -1 
C 33.703125 -1 41.59375 -1 50.59375 8.296875 
C 53.90625 11.890625 56.90625 16.5 58.59375 20.796875 
C 59.59375 23.40625 62 32.296875 62 37.390625 
C 62 43.390625 59 44.078125 58 44.078125 
C 55.59375 44.078125 53.40625 41.6875 53.40625 39.6875 
C 53.40625 38.484375 54.09375 37.78125 54.5 37.390625 
C 55.40625 36.484375 58.09375 33.78125 58.09375 28.59375 
C 58.09375 25 56.09375 17.59375 49.703125 10.40625 
C 41.296875 1 33.59375 1 30.59375 1 
z
" id="CMMI12-32"/>
      <path d="M 65.90625 48.5 
C 67.703125 49.296875 67.90625 50 67.90625 50.59375 
C 67.90625 51.703125 67.09375 52.5 66 52.5 
C 65.796875 52.5 65.703125 52.390625 64.296875 51.796875 
L 10.203125 26.859375 
C 8.40625 26.046875 8.203125 25.34375 8.203125 24.75 
C 8.203125 24.046875 8.296875 23.453125 10.203125 22.53125 
L 64.296875 -2.40625 
C 65.59375 -3 65.796875 -3 66 -3 
C 67.09375 -3 67.90625 -2.203125 67.90625 -1.09375 
C 67.90625 -0.5 67.703125 0.203125 65.90625 1 
L 14.40625 24.703125 
z
" id="CMMI12-60"/>
      <path d="M 42 31.640625 
C 42 37.75 41.90625 48.125 37.703125 56.109375 
C 34 63.109375 28.09375 65.59375 22.90625 65.59375 
C 18.09375 65.59375 12 63.40625 8.203125 56.203125 
C 4.203125 48.71875 3.796875 39.4375 3.796875 31.640625 
C 3.796875 25.953125 3.90625 17.28125 7 9.671875 
C 11.296875 -0.609375 19 -2 22.90625 -2 
C 27.5 -2 34.5 -0.109375 38.59375 9.375 
C 41.59375 16.28125 42 24.359375 42 31.640625 
z
M 22.90625 -0.40625 
C 16.5 -0.40625 12.703125 5.078125 11.296875 12.6875 
C 10.203125 18.5625 10.203125 27.15625 10.203125 32.75 
C 10.203125 40.4375 10.203125 46.828125 11.5 52.921875 
C 13.40625 61.390625 19 64 22.90625 64 
C 27 64 32.296875 61.296875 34.203125 53.125 
C 35.5 47.4375 35.59375 40.734375 35.59375 32.75 
C 35.59375 26.25 35.59375 18.265625 34.40625 12.375 
C 32.296875 1.484375 26.40625 -0.40625 22.90625 -0.40625 
z
" id="CMR17-48"/>
     </defs>
     <use transform="scale(0.996264)" xlink:href="#CMMI12-32"/>
     <use transform="translate(94.667488 0)scale(0.996264)" xlink:href="#CMMI12-60"/>
     <use transform="translate(198.213593 0)scale(0.996264)" xlink:href="#CMR17-48"/>
    </g>
   </g>
  </g>
  <g id="axes_2">
   <g id="patch_7">
    <path d="M 136.742353 130.160469 
L 241.777647 130.160469 
L 241.777647 25.125175 
L 136.742353 25.125175 
z
" style="fill:#ffffff;"/>
   </g>
   <g id="line2d_2">
    <path clip-path="url(#p31b09fbec5)" d="M 227.475526 141.860469 
L 225.860662 137.039698 
L 223.770578 131.467643 
L 221.471553 125.978497 
L 218.966866 120.58009 
L 216.260092 115.280126 
L 213.355092 110.086166 
L 210.256011 105.00562 
L 206.967271 100.045738 
L 203.493563 95.213595 
L 199.839844 90.516087 
L 196.011327 85.959914 
L 192.013475 81.551579 
L 187.85199 77.29737 
L 183.532811 73.203357 
L 179.062101 69.275381 
L 174.446236 65.519047 
L 169.691805 61.939714 
L 164.805589 58.542489 
L 159.79456 55.332218 
L 154.665868 52.313483 
L 149.42683 49.490589 
L 144.08492 46.867565 
L 138.647762 44.448153 
L 133.123111 42.235805 
L 127.518851 40.233678 
L 121.842977 38.444627 
L 116.103587 36.871206 
L 110.308871 35.51566 
L 104.467095 34.379921 
L 98.586594 33.465612 
L 92.675759 32.774036 
L 86.743023 32.30618 
L 80.796851 32.062711 
L 74.845725 32.043978 
L 68.898137 32.250006 
L 62.962573 32.680502 
L 57.047501 33.334851 
L 51.161361 34.21212 
L 45.312551 35.311058 
L 39.509415 36.630096 
L 33.760233 38.167352 
L 28.073208 39.920633 
L 22.456454 41.887438 
L 16.917985 44.06496 
L 11.465702 46.450093 
L 6.107385 49.039434 
L 0.850678 51.829288 
L -1 52.874084 
L -1 52.874084 
" style="fill:none;stroke:#000000;stroke-linecap:square;stroke-width:1.5;"/>
   </g>
   <g id="matplotlib.axis_3"/>
   <g id="matplotlib.axis_4"/>
   <g id="PathCollection_2">
    <g clip-path="url(#p31b09fbec5)">
     <use style="fill:#1f77b4;stroke:#1f77b4;" x="158.938936" xlink:href="#m93c5f5d0fb" y="39.741361"/>
     <use style="fill:#1f77b4;stroke:#1f77b4;" x="219.581064" xlink:href="#m93c5f5d0fb" y="39.741361"/>
     <use style="fill:#1f77b4;stroke:#1f77b4;" x="158.938936" xlink:href="#m93c5f5d0fb" y="29.041521"/>
     <use style="fill:#1f77b4;stroke:#1f77b4;" x="219.581064" xlink:href="#m93c5f5d0fb" y="29.041521"/>
     <use style="fill:#1f77b4;stroke:#1f77b4;" x="220.175878" xlink:href="#m93c5f5d0fb" y="111.880337"/>
     <use style="fill:#1f77b4;stroke:#1f77b4;" x="235.989467" xlink:href="#m93c5f5d0fb" y="111.880337"/>
     <use style="fill:#1f77b4;stroke:#1f77b4;" x="184.923303" xlink:href="#m93c5f5d0fb" y="61.937945"/>
     <use style="fill:#1f77b4;stroke:#1f77b4;" x="226.543538" xlink:href="#m93c5f5d0fb" y="61.937945"/>
    </g>
   </g>
   <g id="patch_8">
    <path d="M 136.742353 130.160469 
L 136.742353 25.125175 
" style="fill:none;stroke:#000000;stroke-linecap:square;stroke-linejoin:miter;stroke-width:0.8;"/>
   </g>
   <g id="patch_9">
    <path d="M 241.777647 130.160469 
L 241.777647 25.125175 
" style="fill:none;stroke:#000000;stroke-linecap:square;stroke-linejoin:miter;stroke-width:0.8;"/>
   </g>
   <g id="patch_10">
    <path d="M 136.742353 130.160469 
L 241.777647 130.160469 
" style="fill:none;stroke:#000000;stroke-linecap:square;stroke-linejoin:miter;stroke-width:0.8;"/>
   </g>
   <g id="patch_11">
    <path d="M 136.742353 25.125175 
L 241.777647 25.125175 
" style="fill:none;stroke:#000000;stroke-linecap:square;stroke-linejoin:miter;stroke-width:0.8;"/>
   </g>
   <g id="text_2">
    <!-- $\psi &gt; 0$ -->
    <g transform="translate(168.512965 19.125175)scale(0.168 -0.168)">
     <defs>
      <path d="M 65.90625 22.640625 
C 67.796875 23.546875 67.90625 24.140625 67.90625 24.84375 
C 67.90625 25.4375 67.703125 26.140625 65.90625 26.953125 
L 11.796875 51.90625 
C 10.5 52.5 10.296875 52.5 10.09375 52.5 
C 8.90625 52.5 8.203125 51.5 8.203125 50.703125 
C 8.203125 49.5 9 49.09375 10.296875 48.5 
L 61.703125 24.84375 
L 10.203125 1.015625 
C 8.203125 0.09375 8.203125 -0.609375 8.203125 -1.203125 
C 8.203125 -2 8.90625 -3 10.09375 -3 
C 10.296875 -3 10.40625 -2.890625 11.796875 -2.296875 
z
" id="CMMI12-62"/>
     </defs>
     <use transform="scale(0.996264)" xlink:href="#CMMI12-32"/>
     <use transform="translate(94.667488 0)scale(0.996264)" xlink:href="#CMMI12-62"/>
     <use transform="translate(198.213593 0)scale(0.996264)" xlink:href="#CMR17-48"/>
    </g>
   </g>
  </g>
  <g id="axes_3">
   <g id="patch_12">
    <path d="M 262.784706 130.160469 
L 367.82 130.160469 
L 367.82 25.125175 
L 262.784706 25.125175 
z
" style="fill:#ffffff;"/>
   </g>
   <g id="line2d_3">
    <path clip-path="url(#p368b104918)" d="M 353.517879 141.860469 
L 351.903015 137.039698 
L 349.812931 131.467643 
L 347.513906 125.978497 
L 345.009219 120.58009 
L 342.302445 115.280126 
L 339.397445 110.086166 
L 336.298364 105.00562 
L 333.009624 100.045738 
L 329.535916 95.213595 
L 325.882197 90.516087 
L 322.05368 85.959914 
L 318.055828 81.551579 
L 313.894343 77.29737 
L 309.575164 73.203357 
L 305.104454 69.275381 
L 300.488589 65.519047 
L 295.734158 61.939714 
L 290.847941 58.542489 
L 285.836913 55.332218 
L 280.708221 52.313483 
L 275.469182 49.490589 
L 270.127273 46.867565 
L 264.690115 44.448153 
L 259.165464 42.235805 
L 253.561204 40.233678 
L 247.88533 38.444627 
L 242.14594 36.871206 
L 236.351224 35.51566 
L 230.509448 34.379921 
L 224.628947 33.465612 
L 218.718112 32.774036 
L 212.785376 32.30618 
L 206.839204 32.062711 
L 200.888078 32.043978 
L 194.94049 32.250006 
L 189.004926 32.680502 
L 183.089854 33.334851 
L 177.203714 34.21212 
L 171.354904 35.311058 
L 165.551768 36.630096 
L 159.802586 38.167352 
L 154.115561 39.920633 
L 148.498807 41.887438 
L 142.960338 44.06496 
L 137.508055 46.450093 
L 132.149738 49.039434 
L 126.893031 51.829288 
L 121.745436 54.815675 
L 116.714295 57.994334 
L 111.806788 61.360729 
L 107.029916 64.910059 
L 102.390494 68.637258 
L 97.895143 72.53701 
L 93.550274 76.603749 
L 89.362089 80.831674 
L 85.336562 85.214753 
L 81.479437 89.746731 
L 77.796216 94.421144 
L 74.292155 99.231321 
L 70.972254 104.1704 
L 67.841248 109.231334 
L 64.903606 114.406902 
L 62.163518 119.68972 
L 59.624895 125.072251 
L 57.291357 130.546815 
L 55.166234 136.105601 
L 53.215214 141.860469 
L 53.215214 141.860469 
" style="fill:none;stroke:#000000;stroke-linecap:square;stroke-width:1.5;"/>
   </g>
   <g id="matplotlib.axis_5"/>
   <g id="matplotlib.axis_6"/>
   <g id="PathCollection_3">
    <g clip-path="url(#p368b104918)">
     <use style="fill:#1f77b4;stroke:#1f77b4;" x="340.430156" xlink:href="#m93c5f5d0fb" y="111.880337"/>
     <use style="fill:#1f77b4;stroke:#1f77b4;" x="295.731652" xlink:href="#m93c5f5d0fb" y="61.937945"/>
    </g>
   </g>
   <g id="patch_13">
    <path d="M 262.784706 130.160469 
L 262.784706 25.125175 
" style="fill:none;stroke:#000000;stroke-linecap:square;stroke-linejoin:miter;stroke-width:0.8;"/>
   </g>
   <g id="patch_14">
    <path d="M 367.82 130.160469 
L 367.82 25.125175 
" style="fill:none;stroke:#000000;stroke-linecap:square;stroke-linejoin:miter;stroke-width:0.8;"/>
   </g>
   <g id="patch_15">
    <path d="M 262.784706 130.160469 
L 367.82 130.160469 
" style="fill:none;stroke:#000000;stroke-linecap:square;stroke-linejoin:miter;stroke-width:0.8;"/>
   </g>
   <g id="patch_16">
    <path d="M 262.784706 25.125175 
L 367.82 25.125175 
" style="fill:none;stroke:#000000;stroke-linecap:square;stroke-linejoin:miter;stroke-width:0.8;"/>
   </g>
   <g id="text_3">
    <!-- $\psi = 0$ -->
    <g transform="translate(294.555318 19.125175)scale(0.168 -0.168)">
     <defs>
      <path d="M 64.296875 31.515625 
C 65.796875 31.515625 67.296875 31.515625 67.296875 33.203125 
C 67.296875 35 65.59375 35 63.90625 35 
L 8 35 
C 6.296875 35 4.59375 35 4.59375 33.203125 
C 4.59375 31.515625 6.09375 31.515625 7.59375 31.515625 
z
M 63.90625 14 
C 65.59375 14 67.296875 14 67.296875 15.796875 
C 67.296875 17.484375 65.796875 17.484375 64.296875 17.484375 
L 7.59375 17.484375 
C 6.09375 17.484375 4.59375 17.484375 4.59375 15.796875 
C 4.59375 14 6.296875 14 8 14 
z
" id="CMR17-61"/>
     </defs>
     <use transform="scale(0.996264)" xlink:href="#CMMI12-32"/>
     <use transform="translate(94.667488 0)scale(0.996264)" xlink:href="#CMR17-61"/>
     <use transform="translate(194.056286 0)scale(0.996264)" xlink:href="#CMR17-48"/>
    </g>
   </g>
  </g>
 </g>
 <defs>
  <clipPath id="p6c1199b75e">
   <rect height="105.035294" width="105.035294" x="10.7" y="25.125175"/>
  </clipPath>
  <clipPath id="p31b09fbec5">
   <rect height="105.035294" width="105.035294" x="136.742353" y="25.125175"/>
  </clipPath>
  <clipPath id="p368b104918">
   <rect height="105.035294" width="105.035294" x="262.784706" y="25.125175"/>
  </clipPath>
 </defs>
</svg>
