<?xml version="1.0" encoding="UTF-8" standalone="no"?>
<!-- Created with Inkscape (http://www.inkscape.org/) -->

<svg
   xmlns:dc="http://purl.org/dc/elements/1.1/"
   xmlns:cc="http://creativecommons.org/ns#"
   xmlns:rdf="http://www.w3.org/1999/02/22-rdf-syntax-ns#"
   xmlns:svg="http://www.w3.org/2000/svg"
   xmlns="http://www.w3.org/2000/svg"
   xmlns:sodipodi="http://sodipodi.sourceforge.net/DTD/sodipodi-0.dtd"
   xmlns:inkscape="http://www.inkscape.org/namespaces/inkscape"
   width="57.979237mm"
   height="68.900131mm"
   viewBox="0 0 57.979238 68.900131"
   version="1.1"
   id="svg8"
   inkscape:version="0.92.5 (2060ec1f9f, 2020-04-08)"
   sodipodi:docname="step-85-submesh.svg">
  <defs
     id="defs2" />
  <sodipodi:namedview
     id="base"
     pagecolor="#ffffff"
     bordercolor="#666666"
     borderopacity="1.0"
     inkscape:pageopacity="0.0"
     inkscape:pageshadow="2"
     inkscape:zoom="1.979899"
     inkscape:cx="179.60987"
     inkscape:cy="191.3565"
     inkscape:document-units="mm"
     inkscape:current-layer="layer1"
     showgrid="false"
     inkscape:window-width="1366"
     inkscape:window-height="713"
     inkscape:window-x="0"
     inkscape:window-y="0"
     inkscape:window-maximized="1"
     inkscape:snap-global="false"
     fit-margin-top="0"
     fit-margin-left="0"
     fit-margin-right="0"
     fit-margin-bottom="0"
     showguides="false" />
  <metadata
     id="metadata5">
    <rdf:RDF>
      <cc:Work
         rdf:about="">
        <dc:format>image/svg+xml</dc:format>
        <dc:type
           rdf:resource="http://purl.org/dc/dcmitype/StillImage" />
        <dc:title></dc:title>
      </cc:Work>
    </rdf:RDF>
  </metadata>
  <g
     inkscape:label="Layer 1"
     inkscape:groupmode="layer"
     id="layer1"
     transform="translate(334.16873,-203.02181)">
    <g
       style="font-style:normal;font-variant:normal;font-weight:normal;font-stretch:normal;letter-spacing:normal;word-spacing:normal;text-anchor:start;fill:none;fill-opacity:1;fill-rule:evenodd;stroke:#000000;stroke-linecap:butt;stroke-linejoin:miter;stroke-miterlimit:10.43299961;stroke-dasharray:none;stroke-dashoffset:0;stroke-opacity:1"
       id="g1099"
       transform="matrix(0.13432553,0,0,-0.13432553,-370.4005,324.63128)"
       xml:space="preserve"
       stroke-miterlimit="10.433"
       font-style="normal"
       font-variant="normal"
       font-weight="normal"
       font-stretch="normal"
       font-size-adjust="none"
       letter-spacing="normal"
       word-spacing="normal"><path
         style="fill:#000000;stroke-width:0"
         inkscape:connector-curvature="0"
         d="M 479.74,437.14 H 488 c 6.58,0 9.07,3.78 9.07,4.43 0,0.25 -0.19,0.35 -0.44,0.35 -0.56,0 -1.84,-0.5 -3.09,-1.39 -0.41,-0.3 -0.5,-0.3 -1.46,-0.3 h -21.76 c -6.18,0 -13.11,-5.33 -13.11,-9.42 0,-0.3 0,-0.6 0.4,-0.6 1.19,0 4.33,1.65 4.44,2.85 0.05,0.84 0.14,1.78 1.14,3.08 0.5,0.61 0.89,1 3.1,1 h 9.9 c -0.84,-0.55 -1.05,-1.3 -1.14,-1.8 l -5.69,-22.56 c -0.59,-2.44 -1.64,-5.58 -3.07,-8.82 -0.3,-0.6 -0.3,-0.7 -0.3,-0.81 0,-0.29 0.19,-0.34 0.44,-0.34 1,0 3.43,1.34 4.18,2.39 0.3,0.5 2.5,5.58 3.55,9.72 z"
         id="path1093" /><path
         style="fill:#000000;stroke-width:0"
         inkscape:connector-curvature="0"
         d="m 506.27,447.34 v 0 0.01 0 0.01 0 l 0.01,0.01 v 0 0.01 0.01 h 0.01 v 0.02 l 0.01,0.02 v 0.02 l 0.01,0.02 v 0.02 l 0.01,0.02 v 0.02 l 0.01,0.02 0.01,0.03 0.01,0.04 0.01,0.05 v 0.02 l 0.01,0.03 v 0.02 l 0.01,0.02 v 0.02 l 0.01,0.02 v 0.01 l 0.01,0.02 v 0.01 0 0.01 0.01 0 0.01 0 0.01 h 0.01 v 0 0.01 0 c 0,0.18 -0.14,0.5 -0.57,0.5 -0.68,0 -3.57,-0.28 -4.45,-0.36 -0.28,-0.03 -0.77,-0.07 -0.77,-0.8 0,-0.48 0.49,-0.48 0.91,-0.48 1.67,0 1.67,-0.25 1.67,-0.54 0,-0.23 -0.08,-0.45 -0.14,-0.76 l -4.92,-19.72 c -0.17,-0.62 -0.17,-0.69 -0.17,-0.77 0,-0.51 0.42,-1.1 1.19,-1.1 0.39,0 1.04,0.17 1.43,0.9 0.1,0.2 0.41,1.45 0.58,2.19 l 0.81,3.11 c 0.1,0.51 0.46,1.84 0.55,2.36 0.36,1.33 0.36,1.36 1.05,2.48 1.12,1.71 2.86,3.69 5.58,3.69 1.95,0 2.06,-1.61 2.06,-2.44 0,-2.09 -1.5,-5.95 -2.06,-7.42 -0.38,-0.98 -0.52,-1.3 -0.52,-1.89 0,-1.84 1.53,-2.98 3.3,-2.98 3.5,0 5.03,4.79 5.03,5.32 0,0.46 -0.45,0.46 -0.56,0.46 -0.49,0 -0.53,-0.21 -0.66,-0.6 -0.81,-2.78 -2.34,-4.22 -3.7,-4.22 -0.74,0 -0.88,0.49 -0.88,1.22 0,0.8 0.19,1.25 0.81,2.83 0.41,1.08 1.85,4.77 1.85,6.72 0,0.56 0,2.03 -1.3,3.03 -0.59,0.45 -1.59,0.94 -3.23,0.94 -2.55,0 -4.39,-1.39 -5.68,-2.89 z"
         id="path1095" /><path
         style="fill:#000000;stroke-width:0"
         inkscape:connector-curvature="0"
         d="m 509.02,398.26 h -1.19 c -0.03,-0.11 -0.35,-1.75 -0.63,-2.55 -0.2,-0.56 -0.31,-0.84 -2.47,-0.84 h -2.96 c 0.59,1.95 1.61,3.31 3.56,5.92 1.7,2.31 3.23,4.61 3.23,7.42 0,4.7 -5.04,8.69 -11.73,8.69 -6.71,0 -11.75,-3.99 -11.75,-8.69 0,-3.06 1.67,-5.33 4.11,-8.59 1.01,-1.33 2.12,-2.89 2.69,-4.75 h -2.97 c -2.08,0 -2.22,0.28 -2.39,0.67 -0.29,0.66 -0.71,2.64 -0.71,2.72 h -1.19 l 1.26,-5.86 h 6.28 c 0.73,0 0.96,0 0.96,0.76 0,2.52 -1.28,5.47 -2.01,7.18 -1.33,3.07 -2.3,5.34 -2.3,7.92 0,4.94 3.94,7.65 8.02,7.65 4.11,0 8.01,-2.75 8.01,-7.65 0,-2.63 -1.04,-5.02 -2.23,-7.74 -0.77,-1.75 -2.09,-4.81 -2.09,-7.32 0,-0.8 0.2,-0.8 1.01,-0.8 h 6.24 z"
         id="path1097" /></g>    <path
       inkscape:connector-curvature="0"
       id="path74-6"
       style="fill:none;stroke:#0000ed;stroke-width:0.37742284;stroke-linecap:butt;stroke-linejoin:miter;stroke-miterlimit:4;stroke-dasharray:none;stroke-opacity:1"
       d="m -279.07075,230.2073 c 0,14.30493 -11.5962,25.90111 -25.90113,25.90111 -14.3045,0 -25.90113,-11.59618 -25.90113,-25.90111 0,-14.3049 11.59663,-25.9011 25.90113,-25.9011 14.30493,0 25.90113,11.5962 25.90113,25.9011 z" />
    <path
       inkscape:connector-curvature="0"
       id="path14"
       style="fill:none;stroke:#000000;stroke-width:0.30193827;stroke-linecap:butt;stroke-linejoin:miter;stroke-miterlimit:4;stroke-dasharray:none;stroke-opacity:1"
       d="m -334.01776,217.63504 h 7.06046 m 0,0 v 7.06049 m 0,0 h -7.06046 m 0,0 v -7.06049" />
    <path
       inkscape:connector-curvature="0"
       id="path16"
       style="fill:none;stroke:#000000;stroke-width:0.30193827;stroke-linecap:butt;stroke-linejoin:miter;stroke-miterlimit:4;stroke-dasharray:none;stroke-opacity:1"
       d="m -334.01776,224.86563 h 7.06046 m 0,0 v 7.06049 m 0,0 h -7.06046 m 0,0 v -7.06049" />
    <path
       inkscape:connector-curvature="0"
       id="path18"
       style="fill:none;stroke:#000000;stroke-width:0.30193827;stroke-linecap:butt;stroke-linejoin:miter;stroke-miterlimit:4;stroke-dasharray:none;stroke-opacity:1"
       d="m -334.01776,232.09676 h 7.06046 m 0,0 v 7.06049 m 0,0 h -7.06046 m 0,0 v -7.06049" />
    <path
       inkscape:connector-curvature="0"
       id="path20"
       style="fill:none;stroke:#000000;stroke-width:0.30193827;stroke-linecap:butt;stroke-linejoin:miter;stroke-miterlimit:4;stroke-dasharray:none;stroke-opacity:1"
       d="m -334.01776,239.32789 h 7.06046 m 0,0 v 7.06049 m 0,0 h -7.06046 m 0,0 v -7.06049" />
    <path
       inkscape:connector-curvature="0"
       id="path24"
       style="fill:none;stroke:#000000;stroke-width:0.30193827;stroke-linecap:butt;stroke-linejoin:miter;stroke-miterlimit:4;stroke-dasharray:none;stroke-opacity:1"
       d="m -326.78666,210.40391 h 7.0605 m 0,0 v 7.06049 m 0,0 h -7.0605 m 0,0 v -7.06049" />
    <path
       inkscape:connector-curvature="0"
       id="path26"
       style="fill:none;stroke:#000000;stroke-width:0.30193827;stroke-linecap:butt;stroke-linejoin:miter;stroke-miterlimit:4;stroke-dasharray:none;stroke-opacity:1"
       d="m -326.78666,217.63504 h 7.0605 m 0,0 v 7.06049 m 0,0 h -7.0605 m 0,0 v -7.06049" />
    <path
       inkscape:connector-curvature="0"
       id="path28"
       style="fill:none;stroke:#000000;stroke-width:0.30193827;stroke-linecap:butt;stroke-linejoin:miter;stroke-miterlimit:4;stroke-dasharray:none;stroke-opacity:1"
       d="m -326.78666,224.86563 h 7.0605 m 0,0 v 7.06049 m 0,0 h -7.0605 m 0,0 v -7.06049" />
    <path
       inkscape:connector-curvature="0"
       id="path30"
       style="fill:none;stroke:#000000;stroke-width:0.30193827;stroke-linecap:butt;stroke-linejoin:miter;stroke-miterlimit:4;stroke-dasharray:none;stroke-opacity:1"
       d="m -326.78666,232.09676 h 7.0605 m 0,0 v 7.06049 m 0,0 h -7.0605 m 0,0 v -7.06049" />
    <path
       inkscape:connector-curvature="0"
       id="path32"
       style="fill:none;stroke:#000000;stroke-width:0.30193827;stroke-linecap:butt;stroke-linejoin:miter;stroke-miterlimit:4;stroke-dasharray:none;stroke-opacity:1"
       d="m -326.78666,239.32789 h 7.0605 m 0,0 v 7.06049 m 0,0 h -7.0605 m 0,0 v -7.06049" />
    <path
       inkscape:connector-curvature="0"
       id="path34"
       style="fill:none;stroke:#000000;stroke-width:0.30193827;stroke-linecap:butt;stroke-linejoin:miter;stroke-miterlimit:4;stroke-dasharray:none;stroke-opacity:1"
       d="m -326.78666,246.55891 h 7.0605 m 0,0 v 7.06059 m 0,0 h -7.0605 m 0,0 v -7.06059" />
    <path
       inkscape:connector-curvature="0"
       id="path36"
       style="fill:none;stroke:#000000;stroke-width:0.30193827;stroke-linecap:butt;stroke-linejoin:miter;stroke-miterlimit:4;stroke-dasharray:none;stroke-opacity:1"
       d="m -283.57159,210.40389 h 7.0605 m 0,0 v 7.06051 m 0,0 h -7.0605 m 0,0 v -7.06051" />
    <path
       inkscape:connector-curvature="0"
       id="path38"
       style="fill:none;stroke:#000000;stroke-width:0.30193827;stroke-linecap:butt;stroke-linejoin:miter;stroke-miterlimit:4;stroke-dasharray:none;stroke-opacity:1"
       d="m -319.55605,203.17278 h 7.06048 m 0,0 v 7.06049 m 0,0 h -7.06048 m 0,0 v -7.06049" />
    <path
       inkscape:connector-curvature="0"
       id="path40"
       style="fill:none;stroke:#000000;stroke-width:0.30193827;stroke-linecap:butt;stroke-linejoin:miter;stroke-miterlimit:4;stroke-dasharray:none;stroke-opacity:1"
       d="m -319.55605,210.40391 h 7.06048 m 0,0 v 7.06049 m 0,0 h -7.06048 m 0,0 v -7.06049" />
    <path
       inkscape:connector-curvature="0"
       id="path42"
       style="fill:none;stroke:#000000;stroke-width:0.30193827;stroke-linecap:butt;stroke-linejoin:miter;stroke-miterlimit:4;stroke-dasharray:none;stroke-opacity:1"
       d="m -319.55605,217.63504 h 7.06048 m 0,0 v 7.06049 m 0,0 h -7.06048 m 0,0 v -7.06049" />
    <path
       inkscape:connector-curvature="0"
       id="path44"
       style="fill:none;stroke:#000000;stroke-width:0.30193827;stroke-linecap:butt;stroke-linejoin:miter;stroke-miterlimit:4;stroke-dasharray:none;stroke-opacity:1"
       d="m -319.55605,224.86563 h 7.06048 m 0,0 v 7.06049 m 0,0 h -7.06048 m 0,0 v -7.06049" />
    <path
       inkscape:connector-curvature="0"
       id="path46"
       style="fill:none;stroke:#000000;stroke-width:0.30193827;stroke-linecap:butt;stroke-linejoin:miter;stroke-miterlimit:4;stroke-dasharray:none;stroke-opacity:1"
       d="m -319.55605,232.09676 h 7.06048 m 0,0 v 7.06049 m 0,0 h -7.06048 m 0,0 v -7.06049" />
    <path
       inkscape:connector-curvature="0"
       id="path48"
       style="fill:none;stroke:#000000;stroke-width:0.30193827;stroke-linecap:butt;stroke-linejoin:miter;stroke-miterlimit:4;stroke-dasharray:none;stroke-opacity:1"
       d="m -319.55605,239.32789 h 7.06048 m 0,0 v 7.06049 m 0,0 h -7.06048 m 0,0 v -7.06049" />
    <path
       inkscape:connector-curvature="0"
       id="path50"
       style="fill:none;stroke:#000000;stroke-width:0.30193827;stroke-linecap:butt;stroke-linejoin:miter;stroke-miterlimit:4;stroke-dasharray:none;stroke-opacity:1"
       d="m -319.55605,246.55891 h 7.06048 m 0,0 v 7.06059 m 0,0 h -7.06048 m 0,0 v -7.06059" />
    <path
       inkscape:connector-curvature="0"
       id="path52"
       style="fill:none;stroke:#000000;stroke-width:0.30193827;stroke-linecap:butt;stroke-linejoin:miter;stroke-miterlimit:4;stroke-dasharray:none;stroke-opacity:1"
       d="m -319.55605,253.78959 h 7.06048 m 0,0 v 7.06051 m 0,0 h -7.06048 m 0,0 v -7.06051" />
    <path
       inkscape:connector-curvature="0"
       id="path54"
       style="fill:none;stroke:#000000;stroke-width:0.30193827;stroke-linecap:butt;stroke-linejoin:miter;stroke-miterlimit:4;stroke-dasharray:none;stroke-opacity:1"
       d="m -312.32493,203.17278 h 7.06049 m 0,0 v 7.06049 m 0,0 h -7.06049 m 0,0 v -7.06049" />
    <path
       inkscape:connector-curvature="0"
       id="path56"
       style="fill:none;stroke:#000000;stroke-width:0.30193827;stroke-linecap:butt;stroke-linejoin:miter;stroke-miterlimit:4;stroke-dasharray:none;stroke-opacity:1"
       d="m -312.32493,210.40391 h 7.06049 m 0,0 v 7.06049 m 0,0 h -7.06049 m 0,0 v -7.06049" />
    <path
       inkscape:connector-curvature="0"
       id="path58"
       style="fill:none;stroke:#000000;stroke-width:0.30193827;stroke-linecap:butt;stroke-linejoin:miter;stroke-miterlimit:4;stroke-dasharray:none;stroke-opacity:1"
       d="m -312.32493,217.63504 h 7.06049 m 0,0 v 7.06049 m 0,0 h -7.06049 m 0,0 v -7.06049" />
    <path
       inkscape:connector-curvature="0"
       id="path60"
       style="fill:none;stroke:#000000;stroke-width:0.30193827;stroke-linecap:butt;stroke-linejoin:miter;stroke-miterlimit:4;stroke-dasharray:none;stroke-opacity:1"
       d="m -312.32493,224.86563 h 7.06049 m 0,0 v 7.06049 m 0,0 h -7.06049 m 0,0 v -7.06049" />
    <path
       inkscape:connector-curvature="0"
       id="path62"
       style="fill:none;stroke:#000000;stroke-width:0.30193827;stroke-linecap:butt;stroke-linejoin:miter;stroke-miterlimit:4;stroke-dasharray:none;stroke-opacity:1"
       d="m -312.32493,232.09676 h 7.06049 m 0,0 v 7.06049 m 0,0 h -7.06049 m 0,0 v -7.06049" />
    <path
       inkscape:connector-curvature="0"
       id="path64"
       style="fill:none;stroke:#000000;stroke-width:0.30193827;stroke-linecap:butt;stroke-linejoin:miter;stroke-miterlimit:4;stroke-dasharray:none;stroke-opacity:1"
       d="m -312.32493,239.32789 h 7.06049 m 0,0 v 7.06049 m 0,0 h -7.06049 m 0,0 v -7.06049" />
    <path
       inkscape:connector-curvature="0"
       id="path66"
       style="fill:none;stroke:#000000;stroke-width:0.30193827;stroke-linecap:butt;stroke-linejoin:miter;stroke-miterlimit:4;stroke-dasharray:none;stroke-opacity:1"
       d="m -312.32493,246.55891 h 7.06049 m 0,0 v 7.06059 m 0,0 h -7.06049 m 0,0 v -7.06059" />
    <path
       inkscape:connector-curvature="0"
       id="path68"
       style="fill:none;stroke:#000000;stroke-width:0.30193827;stroke-linecap:butt;stroke-linejoin:miter;stroke-miterlimit:4;stroke-dasharray:none;stroke-opacity:1"
       d="m -312.32493,253.78959 h 7.06049 m 0,0 v 7.06051 m 0,0 h -7.06049 m 0,0 v -7.06051" />
    <path
       inkscape:connector-curvature="0"
       id="path70"
       style="fill:none;stroke:#000000;stroke-width:0.30193827;stroke-linecap:butt;stroke-linejoin:miter;stroke-miterlimit:4;stroke-dasharray:none;stroke-opacity:1"
       d="m -305.0938,203.17278 h 7.06049 m 0,0 v 7.06049 m 0,0 h -7.06049 m 0,0 v -7.06049" />
    <path
       inkscape:connector-curvature="0"
       id="path72"
       style="fill:none;stroke:#000000;stroke-width:0.30193827;stroke-linecap:butt;stroke-linejoin:miter;stroke-miterlimit:4;stroke-dasharray:none;stroke-opacity:1"
       d="m -305.0938,210.40391 h 7.06049 m 0,0 v 7.06049 m 0,0 h -7.06049 m 0,0 v -7.06049" />
    <path
       inkscape:connector-curvature="0"
       id="path74"
       style="fill:none;stroke:#000000;stroke-width:0.30193827;stroke-linecap:butt;stroke-linejoin:miter;stroke-miterlimit:4;stroke-dasharray:none;stroke-opacity:1"
       d="m -305.0938,217.63504 h 7.06049 m 0,0 v 7.06049 m 0,0 h -7.06049 m 0,0 v -7.06049" />
    <path
       inkscape:connector-curvature="0"
       id="path76"
       style="fill:none;stroke:#000000;stroke-width:0.30193827;stroke-linecap:butt;stroke-linejoin:miter;stroke-miterlimit:4;stroke-dasharray:none;stroke-opacity:1"
       d="m -305.0938,224.86563 h 7.06049 m 0,0 v 7.06049 m 0,0 h -7.06049 m 0,0 v -7.06049" />
    <path
       inkscape:connector-curvature="0"
       id="path78"
       style="fill:none;stroke:#000000;stroke-width:0.30193827;stroke-linecap:butt;stroke-linejoin:miter;stroke-miterlimit:4;stroke-dasharray:none;stroke-opacity:1"
       d="m -305.0938,232.09676 h 7.06049 m 0,0 v 7.06049 m 0,0 h -7.06049 m 0,0 v -7.06049" />
    <path
       inkscape:connector-curvature="0"
       id="path80"
       style="fill:none;stroke:#000000;stroke-width:0.30193827;stroke-linecap:butt;stroke-linejoin:miter;stroke-miterlimit:4;stroke-dasharray:none;stroke-opacity:1"
       d="m -305.0938,239.32789 h 7.06049 m 0,0 v 7.06049 m 0,0 h -7.06049 m 0,0 v -7.06049" />
    <path
       inkscape:connector-curvature="0"
       id="path82"
       style="fill:none;stroke:#000000;stroke-width:0.30193827;stroke-linecap:butt;stroke-linejoin:miter;stroke-miterlimit:4;stroke-dasharray:none;stroke-opacity:1"
       d="m -305.0938,246.55891 h 7.06049 m 0,0 v 7.06059 m 0,0 h -7.06049 m 0,0 v -7.06059" />
    <path
       inkscape:connector-curvature="0"
       id="path84"
       style="fill:none;stroke:#000000;stroke-width:0.30193827;stroke-linecap:butt;stroke-linejoin:miter;stroke-miterlimit:4;stroke-dasharray:none;stroke-opacity:1"
       d="m -305.0938,253.78959 h 7.06049 m 0,0 v 7.06051 m 0,0 h -7.06049 m 0,0 v -7.06051" />
    <path
       inkscape:connector-curvature="0"
       id="path86"
       style="fill:none;stroke:#000000;stroke-width:0.30193827;stroke-linecap:butt;stroke-linejoin:miter;stroke-miterlimit:4;stroke-dasharray:none;stroke-opacity:1"
       d="m -297.86278,203.17278 h 7.0606 m 0,0 v 7.06049 m 0,0 h -7.0606 m 0,0 v -7.06049" />
    <path
       inkscape:connector-curvature="0"
       id="path88"
       style="fill:none;stroke:#000000;stroke-width:0.30193827;stroke-linecap:butt;stroke-linejoin:miter;stroke-miterlimit:4;stroke-dasharray:none;stroke-opacity:1"
       d="m -297.86278,210.40391 h 7.0606 m 0,0 v 7.06049 m 0,0 h -7.0606 m 0,0 v -7.06049" />
    <path
       inkscape:connector-curvature="0"
       id="path90"
       style="fill:none;stroke:#000000;stroke-width:0.30193827;stroke-linecap:butt;stroke-linejoin:miter;stroke-miterlimit:4;stroke-dasharray:none;stroke-opacity:1"
       d="m -297.86278,217.63504 h 7.0606 m 0,0 v 7.06049 m 0,0 h -7.0606 m 0,0 v -7.06049" />
    <path
       inkscape:connector-curvature="0"
       id="path92"
       style="fill:none;stroke:#000000;stroke-width:0.30193827;stroke-linecap:butt;stroke-linejoin:miter;stroke-miterlimit:4;stroke-dasharray:none;stroke-opacity:1"
       d="m -297.86278,224.86563 h 7.0606 m 0,0 v 7.06049 m 0,0 h -7.0606 m 0,0 v -7.06049" />
    <path
       inkscape:connector-curvature="0"
       id="path94"
       style="fill:none;stroke:#000000;stroke-width:0.30193827;stroke-linecap:butt;stroke-linejoin:miter;stroke-miterlimit:4;stroke-dasharray:none;stroke-opacity:1"
       d="m -297.86278,232.09676 h 7.0606 m 0,0 v 7.06049 m 0,0 h -7.0606 m 0,0 v -7.06049" />
    <path
       inkscape:connector-curvature="0"
       id="path96"
       style="fill:none;stroke:#000000;stroke-width:0.30193827;stroke-linecap:butt;stroke-linejoin:miter;stroke-miterlimit:4;stroke-dasharray:none;stroke-opacity:1"
       d="m -297.86278,239.32789 h 7.0606 m 0,0 v 7.06049 m 0,0 h -7.0606 m 0,0 v -7.06049" />
    <path
       inkscape:connector-curvature="0"
       id="path98"
       style="fill:none;stroke:#000000;stroke-width:0.30193827;stroke-linecap:butt;stroke-linejoin:miter;stroke-miterlimit:4;stroke-dasharray:none;stroke-opacity:1"
       d="m -297.86278,246.55891 h 7.0606 m 0,0 v 7.06059 m 0,0 h -7.0606 m 0,0 v -7.06059" />
    <path
       inkscape:connector-curvature="0"
       id="path100"
       style="fill:none;stroke:#000000;stroke-width:0.30193827;stroke-linecap:butt;stroke-linejoin:miter;stroke-miterlimit:4;stroke-dasharray:none;stroke-opacity:1"
       d="m -297.86278,253.78959 h 7.0606 m 0,0 v 7.06051 m 0,0 h -7.0606 m 0,0 v -7.06051" />
    <path
       inkscape:connector-curvature="0"
       id="path102"
       style="fill:none;stroke:#000000;stroke-width:0.30193827;stroke-linecap:butt;stroke-linejoin:miter;stroke-miterlimit:4;stroke-dasharray:none;stroke-opacity:1"
       d="m -290.63208,210.40391 h 7.06049 m 0,0 v 7.06049 m 0,0 h -7.06049 m 0,0 v -7.06049" />
    <path
       inkscape:connector-curvature="0"
       id="path104"
       style="fill:none;stroke:#000000;stroke-width:0.30193827;stroke-linecap:butt;stroke-linejoin:miter;stroke-miterlimit:4;stroke-dasharray:none;stroke-opacity:1"
       d="m -290.63208,217.63504 h 7.06049 m 0,0 v 7.06049 m 0,0 h -7.06049 m 0,0 v -7.06049" />
    <path
       inkscape:connector-curvature="0"
       id="path106"
       style="fill:none;stroke:#000000;stroke-width:0.30193827;stroke-linecap:butt;stroke-linejoin:miter;stroke-miterlimit:4;stroke-dasharray:none;stroke-opacity:1"
       d="m -290.63208,224.86563 h 7.06049 m 0,0 v 7.06049 m 0,0 h -7.06049 m 0,0 v -7.06049" />
    <path
       inkscape:connector-curvature="0"
       id="path108"
       style="fill:none;stroke:#000000;stroke-width:0.30193827;stroke-linecap:butt;stroke-linejoin:miter;stroke-miterlimit:4;stroke-dasharray:none;stroke-opacity:1"
       d="m -290.63208,232.09676 h 7.06049 m 0,0 v 7.06049 m 0,0 h -7.06049 m 0,0 v -7.06049" />
    <path
       inkscape:connector-curvature="0"
       id="path110"
       style="fill:none;stroke:#000000;stroke-width:0.30193827;stroke-linecap:butt;stroke-linejoin:miter;stroke-miterlimit:4;stroke-dasharray:none;stroke-opacity:1"
       d="m -290.63208,239.32789 h 7.06049 m 0,0 v 7.06049 m 0,0 h -7.06049 m 0,0 v -7.06049" />
    <path
       inkscape:connector-curvature="0"
       id="path112"
       style="fill:none;stroke:#000000;stroke-width:0.30193827;stroke-linecap:butt;stroke-linejoin:miter;stroke-miterlimit:4;stroke-dasharray:none;stroke-opacity:1"
       d="m -290.63208,246.55891 h 7.06049 m 0,0 v 7.06059 m 0,0 h -7.06049 m 0,0 v -7.06059" />
    <path
       inkscape:connector-curvature="0"
       id="path116"
       style="fill:none;stroke:#000000;stroke-width:0.30193827;stroke-linecap:butt;stroke-linejoin:miter;stroke-miterlimit:4;stroke-dasharray:none;stroke-opacity:1"
       d="m -283.40095,217.63504 h 7.06049 m 0,0 v 7.06049 m 0,0 h -7.06049 m 0,0 v -7.06049" />
    <path
       inkscape:connector-curvature="0"
       id="path118"
       style="fill:none;stroke:#000000;stroke-width:0.30193827;stroke-linecap:butt;stroke-linejoin:miter;stroke-miterlimit:4;stroke-dasharray:none;stroke-opacity:1"
       d="m -283.40095,224.86563 h 7.06049 m 0,0 v 7.06049 m 0,0 h -7.06049 m 0,0 v -7.06049" />
    <path
       inkscape:connector-curvature="0"
       id="path120"
       style="fill:none;stroke:#000000;stroke-width:0.30193827;stroke-linecap:butt;stroke-linejoin:miter;stroke-miterlimit:4;stroke-dasharray:none;stroke-opacity:1"
       d="m -283.40095,232.09676 h 7.06049 m 0,0 v 7.06049 m 0,0 h -7.06049 m 0,0 v -7.06049" />
    <path
       inkscape:connector-curvature="0"
       id="path122"
       style="fill:none;stroke:#000000;stroke-width:0.30193827;stroke-linecap:butt;stroke-linejoin:miter;stroke-miterlimit:4;stroke-dasharray:none;stroke-opacity:1"
       d="m -283.40095,239.32789 h 7.06049 m 0,0 v 7.06049 m 0,0 h -7.06049 m 0,0 v -7.06049" />
    <path
       inkscape:connector-curvature="0"
       id="path36-3"
       style="fill:none;stroke:#000000;stroke-width:0.30193827;stroke-linecap:butt;stroke-linejoin:miter;stroke-miterlimit:4;stroke-dasharray:none;stroke-opacity:1"
       d="m -290.63209,203.34338 h 7.0605 m 0,0 v 7.06051 m 0,0 h -7.0605 m 0,0 v -7.06051" />
    <path
       inkscape:connector-curvature="0"
       id="path14-7"
       style="fill:none;stroke:#000000;stroke-width:0.30193827;stroke-linecap:butt;stroke-linejoin:miter;stroke-miterlimit:4;stroke-dasharray:none;stroke-opacity:1"
       d="m -333.96524,210.40391 h 7.06046 m 0,0 v 7.06049 m 0,0 h -7.06046 m 0,0 v -7.06049" />
    <path
       inkscape:connector-curvature="0"
       id="path38-5"
       style="fill:none;stroke:#000000;stroke-width:0.30193827;stroke-linecap:butt;stroke-linejoin:miter;stroke-miterlimit:4;stroke-dasharray:none;stroke-opacity:1"
       d="m -326.82914,203.17278 h 7.06048 m 0,0 v 7.06049 m 0,0 h -7.06048 m 0,0 v -7.06049" />
  </g>
  <g
     inkscape:groupmode="layer"
     id="layer2"
     inkscape:label="Layer 2"
     transform="translate(334.16873,-203.02181)" />
</svg>
