# Blender v2.74 (sub 0) OBJ File: ''
# www.blender.org
mtllib torus.mtl
o SuperToroid
v 0.935085 0.735417 -0.562966
v 0.635085 1.035417 -0.562966
v 0.335085 0.735417 -0.562966
v 0.635085 0.435417 -0.562966
v -0.364915 0.735417 -1.862966
v -0.364915 1.035417 -1.562966
v -0.364915 0.735417 -1.262966
v -0.364915 0.435417 -1.562966
v -1.664915 0.735417 -0.562966
v -1.364915 1.035417 -0.562966
v -1.064915 0.735417 -0.562966
v -1.364915 0.435417 -0.562966
v -0.364915 0.735417 0.737034
v -0.364915 1.035417 0.437034
v -0.364915 0.735417 0.137034
v -0.364915 0.435417 0.437034
vn 0.577400 -0.577400 -0.577400
vn 0.577400 0.577400 -0.577400
vn -0.577400 0.577400 0.577400
vn -0.577400 -0.577400 0.577400
vn -0.577400 -0.577400 -0.577400
vn -0.577400 0.577400 -0.577400
vn 0.577400 0.577400 0.577400
vn 0.577400 -0.577400 0.577400
usemtl None
s off
f 5//1 1//1 4//1 8//1
f 1//2 5//2 6//2 2//2
f 2//3 6//3 7//3 3//3
f 3//4 7//4 8//4 4//4
f 9//5 5//5 8//5 12//5
f 5//6 9//6 10//6 6//6
f 6//7 10//7 11//7 7//7
f 7//8 11//8 12//8 8//8
f 13//4 9//4 12//4 16//4
f 9//3 13//3 14//3 10//3
f 10//2 14//2 15//2 11//2
f 11//1 15//1 16//1 12//1
f 1//8 13//8 16//8 4//8
f 13//7 1//7 2//7 14//7
f 14//6 2//6 3//6 15//6
f 15//5 3//5 4//5 16//5
